<svg xmlns="http://www.w3.org/2000/svg" xmlns:xlink="http://www.w3.org/1999/xlink" viewBox="0 0 423 214.35"><defs><style>.cls-1{fill:url(#Gradiente_sem_nome_37);}.cls-2{fill:url(#Gradiente_sem_nome_37-2);}.cls-3{fill:url(#Gradiente_sem_nome_37-3);}.cls-4{fill:url(#Gradiente_sem_nome_37-4);}.cls-5{fill:url(#Gradiente_sem_nome_37-5);}.cls-6{fill:url(#Gradiente_sem_nome_37-6);}.cls-7{fill:url(#Gradiente_sem_nome_37-7);}.cls-8{fill:url(#Gradiente_sem_nome_37-8);}.cls-9{fill:url(#Gradiente_sem_nome_37-9);}.cls-10{fill:url(#Gradiente_sem_nome_37-10);}.cls-11{fill:url(#Gradiente_sem_nome_37-11);}.cls-12{fill:url(#Gradiente_sem_nome_37-12);}.cls-13{fill:url(#Gradiente_sem_nome_37-13);}.cls-14{fill:url(#Gradiente_sem_nome_40);}.cls-15{fill:url(#Gradiente_sem_nome_37-14);}.cls-16{fill:url(#Gradiente_sem_nome_37-15);}.cls-17{fill:url(#Gradiente_sem_nome_37-16);}.cls-18{fill:url(#Gradiente_sem_nome_37-17);}.cls-19{fill:url(#Gradiente_sem_nome_37-18);}.cls-20{fill:url(#Gradiente_sem_nome_37-19);}.cls-21{fill:url(#Gradiente_sem_nome_37-20);}.cls-22{fill:url(#Gradiente_sem_nome_37-21);}.cls-23{fill:url(#Gradiente_sem_nome_37-22);}.cls-24{fill:url(#Gradiente_sem_nome_37-23);}.cls-25{fill:url(#Gradiente_sem_nome_37-24);}.cls-26{fill:url(#Gradiente_sem_nome_37-25);}.cls-27{fill:url(#Gradiente_sem_nome_37-26);}.cls-28{fill:url(#Gradiente_sem_nome_37-27);}</style><linearGradient id="Gradiente_sem_nome_37" x1="192.62" y1="148.85" x2="261.68" y2="217.91" gradientUnits="userSpaceOnUse"><stop offset="0" stop-color="#ee4d83"/><stop offset="1" stop-color="#00bff2"/></linearGradient><linearGradient id="Gradiente_sem_nome_37-2" x1="126.36" y1="-20.1" x2="327.94" y2="181.48" xlink:href="#Gradiente_sem_nome_37"/><linearGradient id="Gradiente_sem_nome_37-3" x1="205.14" y1="146.71" x2="249.15" y2="190.72" xlink:href="#Gradiente_sem_nome_37"/><linearGradient id="Gradiente_sem_nome_37-4" x1="106.26" y1="143.77" x2="160.33" y2="197.85" xlink:href="#Gradiente_sem_nome_37"/><linearGradient id="Gradiente_sem_nome_37-5" x1="126.45" y1="173.23" x2="129.28" y2="176.06" xlink:href="#Gradiente_sem_nome_37"/><linearGradient id="Gradiente_sem_nome_37-6" x1="138.97" y1="173.23" x2="141.8" y2="176.06" xlink:href="#Gradiente_sem_nome_37"/><linearGradient id="Gradiente_sem_nome_37-7" x1="126.45" y1="143.4" x2="129.28" y2="146.23" xlink:href="#Gradiente_sem_nome_37"/><linearGradient id="Gradiente_sem_nome_37-8" x1="138.97" y1="143.4" x2="141.8" y2="146.23" xlink:href="#Gradiente_sem_nome_37"/><linearGradient id="Gradiente_sem_nome_37-9" x1="126.44" y1="184.49" x2="129.28" y2="187.33" xlink:href="#Gradiente_sem_nome_37"/><linearGradient id="Gradiente_sem_nome_37-10" x1="138.97" y1="184.5" x2="141.8" y2="187.33" xlink:href="#Gradiente_sem_nome_37"/><linearGradient id="Gradiente_sem_nome_37-11" x1="126.44" y1="195.76" x2="129.28" y2="198.6" xlink:href="#Gradiente_sem_nome_37"/><linearGradient id="Gradiente_sem_nome_37-12" x1="138.97" y1="195.76" x2="141.8" y2="198.6" xlink:href="#Gradiente_sem_nome_37"/><linearGradient id="Gradiente_sem_nome_37-13" x1="127.93" y1="154.47" x2="140.32" y2="166.86" xlink:href="#Gradiente_sem_nome_37"/><linearGradient id="Gradiente_sem_nome_40" x1="131.75" y1="164.79" x2="136.5" y2="156.55" gradientUnits="userSpaceOnUse"><stop offset="0" stop-color="#00bff2"/><stop offset="1" stop-color="#ee4d83"/></linearGradient><linearGradient id="Gradiente_sem_nome_37-14" x1="0.49" y1="127.33" x2="86.93" y2="213.77" xlink:href="#Gradiente_sem_nome_37"/><linearGradient id="Gradiente_sem_nome_37-15" x1="28.7" y1="149.37" x2="42.07" y2="162.74" xlink:href="#Gradiente_sem_nome_37"/><linearGradient id="Gradiente_sem_nome_37-16" x1="49.54" y1="149.37" x2="62.91" y2="162.74" xlink:href="#Gradiente_sem_nome_37"/><linearGradient id="Gradiente_sem_nome_37-17" x1="18.45" y1="172.03" x2="34.98" y2="188.55" xlink:href="#Gradiente_sem_nome_37"/><linearGradient id="Gradiente_sem_nome_37-18" x1="18.05" y1="171.67" x2="35.22" y2="188.84" xlink:href="#Gradiente_sem_nome_37"/><linearGradient id="Gradiente_sem_nome_37-19" x1="40.89" y1="176.57" x2="52.7" y2="188.37" xlink:href="#Gradiente_sem_nome_37"/><linearGradient id="Gradiente_sem_nome_37-20" x1="40.63" y1="176.31" x2="52.96" y2="188.64" xlink:href="#Gradiente_sem_nome_37"/><linearGradient id="Gradiente_sem_nome_37-21" x1="55.9" y1="174.47" x2="72.2" y2="190.76" xlink:href="#Gradiente_sem_nome_37"/><linearGradient id="Gradiente_sem_nome_37-22" x1="55.34" y1="173.91" x2="72.77" y2="191.34" xlink:href="#Gradiente_sem_nome_37"/><linearGradient id="Gradiente_sem_nome_37-23" x1="67.11" y1="136" x2="74.46" y2="143.35" xlink:href="#Gradiente_sem_nome_37"/><linearGradient id="Gradiente_sem_nome_37-24" x1="63.43" y1="121.55" x2="78.13" y2="136.25" xlink:href="#Gradiente_sem_nome_37"/><linearGradient id="Gradiente_sem_nome_37-25" x1="58.29" y1="106.12" x2="83.27" y2="131.1" xlink:href="#Gradiente_sem_nome_37"/><linearGradient id="Gradiente_sem_nome_37-26" x1="349.5" y1="114.44" x2="433.9" y2="198.84" xlink:href="#Gradiente_sem_nome_37"/><linearGradient id="Gradiente_sem_nome_37-27" x1="377.89" y1="185.62" x2="405.52" y2="213.25" xlink:href="#Gradiente_sem_nome_37"/></defs><title>devices</title><g id="Camada_2" data-name="Camada 2"><g id="Camada_5" data-name="Camada 5"><path class="cls-1" d="M285.83,176.05h-22L254,173.6H198.78l-8.31,2.45h-22a7.34,7.34,0,1,0,0,14.67H285.83a7.34,7.34,0,1,0,0-14.67Z"/><path class="cls-2" d="M345,0H109.29A7.33,7.33,0,0,0,102,7.34V154a7.34,7.34,0,0,0,7.33,7.34h81.18l9.29,2.93H254l9.78-2.93H345a7.34,7.34,0,0,0,7.34-7.34V7.34A7.34,7.34,0,0,0,345,0Zm-3.18,149.38a2.37,2.37,0,0,1-2.37,2.37H114.85a2.38,2.38,0,0,1-2.38-2.37V12.31a2.38,2.38,0,0,1,2.38-2.37h224.6a2.37,2.37,0,0,1,2.37,2.37Z"/><path class="cls-3" d="M190.47,176.05h73.35V161.38H190.47Z"/><path class="cls-4" d="M153.91,139.83v63.61a2,2,0,1,1-4,0V139.83a6,6,0,0,0-6-6H124.36a6,6,0,0,0-6,6v63.61a6,6,0,0,0,6,6h19.53a2,2,0,0,1,0,4H124.36a10,10,0,0,1-10-10V139.83a10,10,0,0,1,10-10h19.53A10,10,0,0,1,153.91,139.83Z"/><path class="cls-5" d="M127.47,172.68a2,2,0,1,0,2.4,2A2,2,0,0,0,127.47,172.68Z"/><path class="cls-6" d="M140,172.68a2,2,0,1,0,2.4,2A2,2,0,0,0,140,172.68Z"/><path class="cls-7" d="M127.47,142.85a2,2,0,1,0,2.4,2A2,2,0,0,0,127.47,142.85Z"/><path class="cls-8" d="M140,142.85a2,2,0,1,0,2.4,2A2,2,0,0,0,140,142.85Z"/><path class="cls-9" d="M127.47,184a2,2,0,1,0,2.4,2A2,2,0,0,0,127.47,184Z"/><path class="cls-10" d="M140,184a2,2,0,1,0,2.4,2A2,2,0,0,0,140,184Z"/><path class="cls-11" d="M125.86,197.18a2,2,0,1,0,3.42-1.42A2,2,0,0,0,125.86,197.18Z"/><path class="cls-12" d="M139.62,195.33a2,2,0,1,0,2.73,1.46,2,2,0,0,0-2.73-1.46Z"/><circle class="cls-13" cx="134.12" cy="160.67" r="8.77"/><circle class="cls-14" cx="134.12" cy="160.67" r="4.76"/><path class="cls-15" d="M91.79,140.48A2.77,2.77,0,0,0,89,143.25v57.16a8.32,8.32,0,0,1-8.31,8.31H13.86a8.32,8.32,0,0,1-8.32-8.31V133.55a8.32,8.32,0,0,1,8.32-8.31h17a2.77,2.77,0,1,0,0-5.54h-17A13.87,13.87,0,0,0,0,133.55v66.86a13.87,13.87,0,0,0,13.86,13.85H80.71a13.86,13.86,0,0,0,13.85-13.85V143.25a2.77,2.77,0,0,0-2.77-2.77Z"/><path class="cls-16" d="M29.13,149.8a2.09,2.09,0,0,0,0,4.17H33.3v12.5a2.09,2.09,0,1,0,4.17,0V154h4.17a2.09,2.09,0,0,0,0-4.17Z"/><path class="cls-17" d="M49.15,150a2.09,2.09,0,0,0-1.09,2.73l6.25,14.59a2.08,2.08,0,0,0,3.83,0l6.25-14.59a2.08,2.08,0,0,0-3.83-1.64l-4.33,10.12-4.34-10.12A2.09,2.09,0,0,0,49.15,150Z"/><path class="cls-18" d="M37.1,182.18a11.06,11.06,0,0,1-.57,3.68,7.68,7.68,0,0,1-1.61,2.74,7,7,0,0,1-2.54,1.73,9,9,0,0,1-3.37.6,16.35,16.35,0,0,1-3-.28,15.09,15.09,0,0,1-3-.89V167.49h2.86v6.4L25.72,177a7.43,7.43,0,0,1,2.64-2.35,6.86,6.86,0,0,1,3-.68,5.08,5.08,0,0,1,2.48.59,5.18,5.18,0,0,1,1.79,1.67,7.78,7.78,0,0,1,1.09,2.6A14.84,14.84,0,0,1,37.1,182.18Zm-2.93.13a13.62,13.62,0,0,0-.19-2.39,5.83,5.83,0,0,0-.6-1.85,3.2,3.2,0,0,0-1.05-1.21,2.67,2.67,0,0,0-1.53-.44,3.87,3.87,0,0,0-1.1.17,4.49,4.49,0,0,0-1.16.58,8.7,8.7,0,0,0-1.27,1.07,16.05,16.05,0,0,0-1.42,1.65v8a10.51,10.51,0,0,0,1.71.52,7.55,7.55,0,0,0,1.66.19,5.58,5.58,0,0,0,1.88-.31,3.85,3.85,0,0,0,1.58-1.05,5.08,5.08,0,0,0,1.09-1.94A9.51,9.51,0,0,0,34.17,182.31Z"/><path class="cls-19" d="M29,191.31A16.93,16.93,0,0,1,26,191a16,16,0,0,1-3.11-.91l-.23-.09V167.11h3.61v6.78l-.08,2a7.16,7.16,0,0,1,2.05-1.58,7.38,7.38,0,0,1,3.19-.72,5.45,5.45,0,0,1,2.66.64A5.65,5.65,0,0,1,36,176a8.29,8.29,0,0,1,1.14,2.72,15,15,0,0,1,.38,3.49,11.48,11.48,0,0,1-.59,3.8,8.37,8.37,0,0,1-1.69,2.88,7.37,7.37,0,0,1-2.68,1.82A9.34,9.34,0,0,1,29,191.31Zm-5.65-1.8a16,16,0,0,0,2.72.77,11.54,11.54,0,0,0,6.16-.3,6.64,6.64,0,0,0,2.4-1.63,7.39,7.39,0,0,0,1.54-2.62,10.81,10.81,0,0,0,.54-3.55,14,14,0,0,0-.35-3.31,7.47,7.47,0,0,0-1-2.48,5,5,0,0,0-1.66-1.55,4.74,4.74,0,0,0-2.3-.54,6.44,6.44,0,0,0-2.86.64,7.13,7.13,0,0,0-2.5,2.23l-.73,1,.18-4.28v-6H23.36Zm5.86-.52a8.3,8.3,0,0,1-1.74-.2,11.27,11.27,0,0,1-1.77-.54l-.24-.09v-8.4l.08-.1A19.45,19.45,0,0,1,27,178a8.87,8.87,0,0,1,1.33-1.11,4.94,4.94,0,0,1,1.26-.63,3.43,3.43,0,0,1,2.95.32,3.57,3.57,0,0,1,1.17,1.34,6.34,6.34,0,0,1,.64,2,14.29,14.29,0,0,1,.2,2.45,10,10,0,0,1-.42,3.12A5.69,5.69,0,0,1,33,187.51a4.25,4.25,0,0,1-1.73,1.14A5.89,5.89,0,0,1,29.22,189Zm-3-1.35a10.41,10.41,0,0,0,1.42.41,6,6,0,0,0,3.34-.11,3.43,3.43,0,0,0,1.43-.94,5,5,0,0,0,1-1.81,9.07,9.07,0,0,0,.39-2.88,13.79,13.79,0,0,0-.19-2.32,6.1,6.1,0,0,0-.56-1.75,2.88,2.88,0,0,0-.93-1.07,2.68,2.68,0,0,0-2.31-.22,4.2,4.2,0,0,0-1.06.53,8.63,8.63,0,0,0-1.21,1A17,17,0,0,0,26.22,180Z"/><path class="cls-20" d="M54.54,182.34a11,11,0,0,1-.54,3.53,7.82,7.82,0,0,1-1.57,2.75A7.09,7.09,0,0,1,50,190.4a8.33,8.33,0,0,1-3.32.63,8.64,8.64,0,0,1-3.19-.55,6.38,6.38,0,0,1-2.38-1.62,7.28,7.28,0,0,1-1.5-2.65,11.84,11.84,0,0,1-.52-3.64,10.59,10.59,0,0,1,.55-3.51,7.8,7.8,0,0,1,1.56-2.73,7.19,7.19,0,0,1,2.48-1.78,8.38,8.38,0,0,1,3.33-.63,8.62,8.62,0,0,1,3.18.55,6.52,6.52,0,0,1,2.39,1.61A7.08,7.08,0,0,1,54,178.72,11.5,11.5,0,0,1,54.54,182.34Zm-2.93.13a9.31,9.31,0,0,0-.34-2.67,5.28,5.28,0,0,0-1-1.91,3.92,3.92,0,0,0-1.52-1.15,5,5,0,0,0-2-.39,4.41,4.41,0,0,0-2.19.51,4.3,4.3,0,0,0-1.5,1.34,5.76,5.76,0,0,0-.86,2,9.76,9.76,0,0,0-.27,2.32,9.46,9.46,0,0,0,.34,2.69,5.28,5.28,0,0,0,1,1.91,3.93,3.93,0,0,0,1.51,1.15,5,5,0,0,0,2,.39,4.55,4.55,0,0,0,2.2-.5,4.18,4.18,0,0,0,1.49-1.34,5.76,5.76,0,0,0,.86-2A9.89,9.89,0,0,0,51.61,182.47Z"/><path class="cls-21" d="M46.63,191.41a9.1,9.1,0,0,1-3.32-.58,6.78,6.78,0,0,1-2.53-1.72,7.78,7.78,0,0,1-1.58-2.78,12.32,12.32,0,0,1-.53-3.76,11.28,11.28,0,0,1,.56-3.63,8.4,8.4,0,0,1,1.64-2.86,7.35,7.35,0,0,1,2.61-1.87,8.74,8.74,0,0,1,3.48-.67,9.17,9.17,0,0,1,3.32.58,6.8,6.8,0,0,1,2.52,1.71,7.41,7.41,0,0,1,1.58,2.78,11.86,11.86,0,0,1,.54,3.73,11.18,11.18,0,0,1-.57,3.65,8.22,8.22,0,0,1-1.63,2.88,7.48,7.48,0,0,1-2.62,1.87A8.73,8.73,0,0,1,46.63,191.41ZM47,174.3a8,8,0,0,0-3.18.6,6.65,6.65,0,0,0-2.35,1.68,7.73,7.73,0,0,0-1.49,2.6,10.44,10.44,0,0,0-.52,3.39,11.37,11.37,0,0,0,.5,3.52,6.67,6.67,0,0,0,1.42,2.51,6,6,0,0,0,2.24,1.53,8.34,8.34,0,0,0,3.05.52,7.93,7.93,0,0,0,3.17-.6,6.65,6.65,0,0,0,2.35-1.68,7.32,7.32,0,0,0,1.49-2.62,10.56,10.56,0,0,0,.52-3.41,11,11,0,0,0-.5-3.5,6.69,6.69,0,0,0-1.41-2.5A6.1,6.1,0,0,0,50,174.82,8.28,8.28,0,0,0,47,174.3ZM46.79,189a5.37,5.37,0,0,1-2.16-.42A4.32,4.32,0,0,1,43,187.31a5.81,5.81,0,0,1-1-2.05,9.76,9.76,0,0,1-.35-2.79,10,10,0,0,1,.28-2.41,6.32,6.32,0,0,1,.91-2.08,4.8,4.8,0,0,1,1.62-1.45,4.87,4.87,0,0,1,2.38-.55,5.36,5.36,0,0,1,2.15.42,4.27,4.27,0,0,1,1.66,1.26,5.69,5.69,0,0,1,1,2,10,10,0,0,1,.35,2.77,10.73,10.73,0,0,1-.28,2.44,6,6,0,0,1-.92,2.07,4.64,4.64,0,0,1-1.62,1.46A4.92,4.92,0,0,1,46.79,189Zm0-12.26a4,4,0,0,0-2,.46,3.84,3.84,0,0,0-1.37,1.22,5.44,5.44,0,0,0-.8,1.83,9.53,9.53,0,0,0-.26,2.23,9.43,9.43,0,0,0,.32,2.58,5.09,5.09,0,0,0,.89,1.79,3.65,3.65,0,0,0,1.37,1,4.61,4.61,0,0,0,1.86.36,4.19,4.19,0,0,0,2-.46,4,4,0,0,0,1.37-1.23,5.48,5.48,0,0,0,.8-1.82,9.72,9.72,0,0,0,.26-2.26,8.89,8.89,0,0,0-.33-2.56,5.12,5.12,0,0,0-.89-1.78,3.61,3.61,0,0,0-1.38-1A4.59,4.59,0,0,0,46.79,176.73Z"/><path class="cls-22" d="M72.23,190.73h-3.8L64,184.43l-4.41,6.3h-3.7l6.4-8.29-6.11-8.22h3.67l4.34,6.35,4.27-6.35H72l-6.2,8.29Z"/><path class="cls-23" d="M73,191.11H68.23l-4.26-6-4.22,6H55.09l6.7-8.67-6.38-8.6H60l4.14,6.06,4.07-6.06h4.48l-6.48,8.66Zm-4.38-.75h2.83l-6.16-7.85,5.92-7.92H68.63l-4.46,6.65-4.55-6.65H56.9l5.83,7.86-6.11,7.91h2.74L64,183.78Z"/><path class="cls-24" d="M74.46,136a5.2,5.2,0,1,1-7.35,0A5.2,5.2,0,0,1,74.46,136Z"/><path class="cls-25" d="M83.52,130.86a2.78,2.78,0,0,0,0-3.92,18,18,0,0,0-25.47,0A2.77,2.77,0,1,0,62,130.86a12.48,12.48,0,0,1,17.64,0,2.78,2.78,0,0,0,3.92,0Z"/><path class="cls-26" d="M47.76,116.65a2.77,2.77,0,0,0,3.92,3.92,27,27,0,0,1,38.21,0,2.77,2.77,0,0,0,3.92-3.92A32.56,32.56,0,0,0,47.76,116.65Z"/><path class="cls-27" d="M415.15,214.35h-46.9a7.85,7.85,0,0,1-7.84-7.85V106.78a7.85,7.85,0,0,1,7.84-7.84h46.9a7.85,7.85,0,0,1,7.85,7.84V206.5A7.86,7.86,0,0,1,415.15,214.35Zm-46.9-109.54a2,2,0,0,0-2,2V206.5a2,2,0,0,0,2,2h46.9a2,2,0,0,0,2-2V106.78a2,2,0,0,0-2-2Z"/><rect class="cls-28" x="366.27" y="197.23" width="50.86" height="4.4"/></g></g></svg>