<svg xmlns="http://www.w3.org/2000/svg" xmlns:xlink="http://www.w3.org/1999/xlink" viewBox="0 0 219.65 174"><defs><style>.cls-1{fill:url(#Gradiente_sem_nome_37);}.cls-2{fill:url(#Gradiente_sem_nome_37-2);}.cls-3{fill:url(#Gradiente_sem_nome_37-3);}</style><linearGradient id="Gradiente_sem_nome_37" x1="92.9" y1="133.13" x2="126.75" y2="166.99" gradientUnits="userSpaceOnUse"><stop offset="0" stop-color="#ee4d83"/><stop offset="1" stop-color="#00bff2"/></linearGradient><linearGradient id="Gradiente_sem_nome_37-2" x1="75.97" y1="66.55" x2="143.68" y2="134.26" xlink:href="#Gradiente_sem_nome_37"/><linearGradient id="Gradiente_sem_nome_37-3" x1="52.27" y1="-4.55" x2="167.38" y2="110.56" xlink:href="#Gradiente_sem_nome_37"/></defs><title>internet</title><g id="Camada_2" data-name="Camada 2"><g id="Camada_5" data-name="Camada 5"><path class="cls-1" d="M126.75,133.13C141.83,148.21,131,174,109.82,174s-32-25.78-16.92-40.87A23.92,23.92,0,0,1,126.75,133.13Z"/><path class="cls-2" d="M168.51,109.43a12.77,12.77,0,0,0,0-18.05,82.94,82.94,0,0,0-117.37,0,12.76,12.76,0,0,0,18,18.05,57.44,57.44,0,0,1,81.26,0,12.77,12.77,0,0,0,18.06,0Z"/><path class="cls-3" d="M3.74,44A12.77,12.77,0,0,0,21.8,62a124.42,124.42,0,0,1,176,0A12.77,12.77,0,0,0,215.91,44,149.93,149.93,0,0,0,3.74,44Z"/></g></g></svg>